<?xml version="1.0" standalone="no"?>
<!DOCTYPE svg PUBLIC "-//W3C//DTD SVG 20010904//EN"
 "http://www.w3.org/TR/2001/REC-SVG-20010904/DTD/svg10.dtd">
<svg version="1.0" xmlns="http://www.w3.org/2000/svg"
 width="321.000000pt" height="321.000000pt" viewBox="0 0 321.000000 321.000000"
 preserveAspectRatio="xMidYMid meet">
<metadata>
Created by potrace 1.14, written by Peter Selinger 2001-2017
</metadata>
<g transform="translate(0.000000,321.000000) scale(0.100000,-0.100000)"
fill="#000000" stroke="none">
<path d="M2270 3197 c-270 -29 -641 -280 -940 -637 -30 -36 -57 -67 -61 -70
-3 -3 -32 -39 -64 -80 -33 -41 -62 -77 -65 -80 -33 -30 -290 -415 -384 -575
-26 -44 -51 -87 -57 -95 -5 -8 -47 -85 -95 -170 -47 -85 -89 -162 -94 -170
-27 -43 -118 -240 -161 -348 -35 -88 -97 -291 -105 -341 -3 -20 -7 -43 -9 -51
-20 -74 -25 -258 -9 -340 16 -86 37 -132 80 -180 64 -71 162 -68 245 7 63 57
82 108 95 252 2 25 6 64 9 86 2 22 7 67 11 100 10 90 14 111 56 248 70 229
203 517 240 517 11 0 40 -12 65 -26 40 -22 56 -25 126 -23 87 2 189 19 306 50
41 11 106 27 145 35 39 9 80 18 91 20 11 3 30 7 43 10 12 2 62 14 110 25 104
25 93 23 212 48 88 18 131 24 250 36 25 2 61 7 82 10 l36 6 -20 -88 c-33 -148
-106 -435 -126 -493 -11 -30 -53 -137 -95 -237 -112 -269 -149 -385 -143 -451
7 -72 45 -136 98 -163 75 -38 183 -22 249 38 49 45 69 82 104 198 15 50 36
110 47 135 11 24 21 49 23 55 1 5 7 21 12 35 15 36 92 252 119 335 25 78 105
376 125 470 7 33 14 65 15 70 4 14 63 275 68 300 7 37 25 140 31 175 3 19 8
42 11 51 2 9 6 36 8 60 4 46 15 126 22 169 9 51 12 367 4 438 -36 306 -133
480 -325 583 -94 51 -239 72 -385 56z m166 -462 c58 -34 107 -130 120 -233 8
-72 9 -256 0 -362 -7 -89 -31 -249 -38 -254 -4 -4 -345 -67 -388 -72 -19 -2
-57 -9 -85 -14 -27 -5 -72 -12 -100 -15 -27 -4 -61 -8 -75 -11 -14 -2 -52 -6
-85 -10 -33 -3 -71 -8 -85 -11 -14 -2 -125 -7 -247 -10 -166 -4 -223 -3 -223
6 0 37 106 198 258 391 328 416 620 625 858 615 36 -1 74 -10 90 -20z"/>
</g>
</svg>
